<?xml version="1.0" encoding="UTF-8" standalone="no"?>
<!DOCTYPE svg PUBLIC "-//W3C//DTD SVG 1.1//EN" "http://www.w3.org/Graphics/SVG/1.1/DTD/svg11.dtd">
<svg width="100%" height="100%" viewBox="0 0 64 64" version="1.1" xmlns="http://www.w3.org/2000/svg" xmlns:xlink="http://www.w3.org/1999/xlink" xml:space="preserve" xmlns:serif="http://www.serif.com/" style="fill-rule:evenodd;clip-rule:evenodd;stroke-linejoin:round;stroke-miterlimit:2;">
    <g transform="matrix(1.97627,0,0,1.97627,-757.904,-1276.07)">
        <path d="M396.349,650.737C389.641,650.737 384.203,654.936 384.203,660.117C384.203,662.5 385.355,664.674 387.251,666.328C387.243,666.349 387.237,666.369 387.233,666.391L386.308,672.119C386.259,672.424 386.632,672.609 386.846,672.386L390.647,668.399C392.348,669.1 394.288,669.497 396.349,669.497C403.057,669.497 408.496,665.298 408.496,660.117C408.496,654.936 403.057,650.737 396.349,650.737Z" style="fill:rgb(126,188,187);fill-rule:nonzero;"/>
    </g>
    <g transform="matrix(1.97627,0,0,1.97627,-757.904,-1276.07)">
        <path d="M396.349,650.737L396.349,669.497C403.057,669.497 408.496,665.298 408.496,660.117C408.496,654.936 403.057,650.737 396.349,650.737Z" style="fill:rgb(88,130,129);fill-rule:nonzero;"/>
    </g>
    <g transform="matrix(1.97627,0,0,1.97627,-757.904,-1276.07)">
        <path d="M406.653,657.766C411.367,657.766 415.188,660.717 415.188,664.356C415.188,666.031 414.378,667.559 413.046,668.721C413.052,668.735 413.056,668.749 413.059,668.765L413.709,672.79C413.744,673.004 413.481,673.135 413.331,672.977L410.66,670.177C409.465,670.668 408.102,670.947 406.653,670.947C401.939,670.947 398.118,667.996 398.118,664.356C398.118,660.717 401.939,657.766 406.653,657.766Z" style="fill:rgb(199,162,79);fill-rule:nonzero;"/>
    </g>
    <g transform="matrix(1.97627,0,0,1.97627,-757.904,-1276.07)">
        <path d="M406.653,657.766L406.653,670.947C401.939,670.947 398.118,667.996 398.118,664.356C398.118,660.717 401.939,657.766 406.653,657.766Z" style="fill:rgb(230,186,89);fill-rule:nonzero;"/>
    </g>
</svg>
