<?xml version="1.0" encoding="UTF-8" standalone="no"?>
<!DOCTYPE svg PUBLIC "-//W3C//DTD SVG 1.1//EN" "http://www.w3.org/Graphics/SVG/1.1/DTD/svg11.dtd">
<svg width="100%" height="100%" viewBox="0 0 64 64" version="1.1" xmlns="http://www.w3.org/2000/svg" xmlns:xlink="http://www.w3.org/1999/xlink" xml:space="preserve" xmlns:serif="http://www.serif.com/" style="fill-rule:evenodd;clip-rule:evenodd;stroke-linejoin:round;stroke-miterlimit:2;">
    <g transform="matrix(1.19955,0,0,1.19955,-6.38571,-5.90041)">
        <path d="M46.636,14.926C46.636,12.939 45.023,11.325 43.035,11.325L9.8,11.325C7.812,11.325 6.199,12.939 6.199,14.926L6.199,43.735C6.199,45.722 7.812,47.336 9.8,47.336L43.035,47.336C45.023,47.336 46.636,45.722 46.636,43.735L46.636,14.926Z" style="fill:url(#_Linear1);"/>
    </g>
    <g transform="matrix(4.80273,0,0,4.74349,-2132.56,-1362.63)">
        <path d="M454.295,298.979C454.086,298.736 453.852,298.477 453.612,298.211C453.103,297.647 452.562,297.048 452.191,296.522C452.033,296.295 451.912,296.052 451.831,295.796C451.751,295.543 451.71,295.278 451.71,295.003C451.71,294.274 452.006,293.614 452.484,293.136C452.961,292.659 453.621,292.363 454.35,292.363C455.079,292.363 455.739,292.659 456.217,293.136C456.695,293.614 456.99,294.274 456.99,295.003C456.99,295.277 456.948,295.545 456.867,295.8C456.786,296.056 456.666,296.299 456.509,296.522C456.138,297.048 455.597,297.647 455.088,298.211C454.847,298.478 454.614,298.736 454.405,298.98C454.379,299.01 454.333,299.014 454.304,298.988C454.3,298.986 454.297,298.982 454.295,298.979Z" style="fill:url(#_Linear2);"/>
    </g>
    <g transform="matrix(0.552379,0,0,0.552379,31.881,22.1586)">
        <circle cx="32" cy="26.101" r="11.899" style="fill:rgb(247,141,30);"/>
    </g>
    <g transform="matrix(0.201177,0,0,0.201177,2.94756,34.69)">
        <circle cx="32" cy="26.101" r="11.899" style="fill:rgb(247,141,30);"/>
    </g>
    <g transform="matrix(0.201177,0,0,0.201177,18.4232,17.1114)">
        <circle cx="32" cy="26.101" r="11.899" style="fill:rgb(247,141,30);"/>
    </g>
    <g transform="matrix(0.201177,0,0,0.201177,34.9233,13.7683)">
        <circle cx="32" cy="26.101" r="11.899" style="fill:rgb(247,141,30);"/>
    </g>
    <g transform="matrix(8.64401,0,0,8.64401,-3155.51,-2629.6)">
        <path d="M369.83,306.607C369.882,306.607 369.929,306.586 369.963,306.552C369.997,306.519 370.018,306.472 370.018,306.42C370.018,306.368 369.997,306.321 369.963,306.288C369.929,306.254 369.882,306.233 369.83,306.233C369.779,306.233 369.732,306.254 369.698,306.288C369.664,306.321 369.643,306.368 369.643,306.42C369.643,306.472 369.664,306.519 369.698,306.552C369.732,306.586 369.779,306.607 369.83,306.607ZM366.158,308.993C366.21,308.993 366.257,308.972 366.291,308.939C366.324,308.905 366.345,308.858 366.345,308.806C366.345,308.754 366.324,308.708 366.291,308.674C366.257,308.64 366.21,308.619 366.158,308.619C366.107,308.619 366.059,308.64 366.026,308.674C365.992,308.708 365.971,308.754 365.971,308.806C365.971,308.858 365.992,308.905 366.026,308.939C366.059,308.972 366.107,308.993 366.158,308.993ZM366.392,309.041C366.453,308.981 366.49,308.897 366.49,308.806C366.49,308.735 366.467,308.669 366.429,308.615L367.02,307.938L367.02,309.979L365.606,309.979C365.526,309.979 365.454,309.947 365.402,309.894C365.35,309.842 365.317,309.77 365.317,309.691L365.317,305.476C365.317,305.396 365.35,305.324 365.402,305.272C365.454,305.22 365.526,305.187 365.606,305.187L367.02,305.187L367.02,307.72L366.323,308.519C366.274,308.491 366.218,308.475 366.158,308.475C366.067,308.475 365.984,308.512 365.924,308.572C365.864,308.632 365.827,308.715 365.827,308.806C365.827,308.897 365.864,308.981 365.924,309.041C365.984,309.1 366.067,309.138 366.158,309.138C366.25,309.138 366.333,309.1 366.392,309.041ZM370.715,306.906C370.316,306.924 369.957,307.093 369.693,307.357C369.413,307.637 369.24,308.024 369.24,308.452C369.24,308.612 369.264,308.768 369.311,308.916C369.358,309.066 369.429,309.208 369.521,309.342L369.521,309.341L369.522,309.342C369.663,309.543 369.847,309.761 370.039,309.979L369.011,309.979L369.011,306.664L369.528,306.556C369.545,306.593 369.568,306.626 369.596,306.654C369.656,306.714 369.739,306.751 369.83,306.751C369.922,306.751 370.005,306.714 370.065,306.654C370.125,306.594 370.162,306.512 370.162,306.42C370.162,306.328 370.125,306.245 370.065,306.186C370.005,306.126 369.922,306.088 369.83,306.088C369.739,306.088 369.656,306.126 369.596,306.186C369.537,306.245 369.5,306.326 369.499,306.415L369.011,306.517L369.011,305.187L370.426,305.187C370.506,305.187 370.578,305.22 370.63,305.272C370.682,305.324 370.715,305.396 370.715,305.476L370.715,306.906ZM370.251,310C370.252,310.002 370.254,310.004 370.256,310.006C370.319,310.077 370.384,310.148 370.447,310.218L370.447,310.219C370.567,310.351 370.683,310.48 370.787,310.599C370.89,310.48 371.007,310.351 371.127,310.219C371.417,309.898 371.724,309.557 371.935,309.259C372.018,309.141 372.082,309.011 372.125,308.875C372.168,308.74 372.19,308.597 372.19,308.452C372.19,308.064 372.033,307.713 371.779,307.459C371.525,307.206 371.174,307.049 370.787,307.049C370.399,307.049 370.049,307.206 369.795,307.459C369.541,307.713 369.384,308.064 369.384,308.452C369.384,308.598 369.406,308.739 369.448,308.873C369.491,309.009 369.555,309.138 369.64,309.259C369.802,309.49 370.024,309.747 370.251,310ZM370.167,310.123L365.606,310.123C365.487,310.123 365.378,310.075 365.3,309.996C365.222,309.918 365.173,309.81 365.173,309.691L365.173,305.476C365.173,305.357 365.221,305.25 365.299,305.171L365.3,305.17C365.379,305.092 365.487,305.043 365.606,305.043L370.426,305.043C370.546,305.043 370.654,305.092 370.732,305.17C370.81,305.249 370.859,305.357 370.859,305.476L370.859,306.906C371.257,306.924 371.617,307.093 371.881,307.357C372.161,307.637 372.334,308.024 372.334,308.452C372.334,308.611 372.31,308.769 372.262,308.919C372.215,309.068 372.144,309.211 372.052,309.342C371.838,309.645 371.527,309.99 371.233,310.315C371.096,310.467 370.963,310.615 370.842,310.756C370.816,310.786 370.77,310.79 370.74,310.764C370.737,310.761 370.734,310.758 370.732,310.755C370.611,310.614 370.477,310.466 370.34,310.315L370.34,310.314L370.34,310.315C370.283,310.252 370.225,310.188 370.167,310.123ZM368.867,305.187L367.164,305.187L367.164,307.555L367.643,307.006C367.603,306.951 367.579,306.883 367.579,306.81C367.579,306.718 367.616,306.635 367.676,306.575C367.736,306.515 367.819,306.478 367.911,306.478C368.002,306.478 368.085,306.515 368.145,306.575C368.175,306.606 368.2,306.642 368.217,306.682L368.867,306.547L368.867,305.187ZM367.164,307.774L367.164,309.979L368.867,309.979L368.867,306.694L368.241,306.824C368.238,306.91 368.202,306.987 368.145,307.044C368.085,307.104 368.002,307.141 367.911,307.141C367.853,307.141 367.799,307.126 367.752,307.101L367.164,307.774ZM370.787,307.735C370.589,307.735 370.41,307.815 370.28,307.944C370.15,308.074 370.07,308.253 370.07,308.452C370.07,308.65 370.15,308.829 370.28,308.958C370.41,309.088 370.589,309.168 370.787,309.168C370.985,309.168 371.164,309.088 371.294,308.958C371.424,308.829 371.503,308.649 371.503,308.451C371.503,308.253 371.424,308.074 371.294,307.945L371.294,307.944C371.164,307.815 370.985,307.735 370.787,307.735ZM370.179,307.843L370.178,307.843C370.023,307.999 369.926,308.214 369.926,308.452C369.926,308.689 370.023,308.904 370.178,309.06L370.179,309.06C370.335,309.216 370.55,309.312 370.787,309.312C371.025,309.312 371.24,309.216 371.395,309.06C371.551,308.905 371.648,308.689 371.648,308.451C371.648,308.214 371.551,307.999 371.395,307.843L371.395,307.842C371.239,307.687 371.024,307.591 370.787,307.591C370.549,307.591 370.335,307.687 370.179,307.843ZM367.911,306.997C367.962,306.997 368.009,306.976 368.043,306.942C368.077,306.908 368.098,306.861 368.098,306.81C368.098,306.758 368.077,306.711 368.043,306.677C368.009,306.643 367.962,306.622 367.911,306.622C367.859,306.622 367.812,306.643 367.778,306.677C367.744,306.711 367.723,306.758 367.723,306.81C367.723,306.861 367.744,306.908 367.778,306.942C367.812,306.976 367.859,306.997 367.911,306.997Z" style="fill:rgb(180,236,54);"/>
    </g>
    <defs>
        <linearGradient id="_Linear1" x1="0" y1="0" x2="1" y2="0" gradientUnits="userSpaceOnUse" gradientTransform="matrix(40.4376,0,0,36.0104,6.19878,29.3304)"><stop offset="0" style="stop-color:rgb(90,45,171);stop-opacity:1"/><stop offset="1" style="stop-color:rgb(123,63,222);stop-opacity:1"/></linearGradient>
        <linearGradient id="_Linear2" x1="0" y1="0" x2="1" y2="0" gradientUnits="userSpaceOnUse" gradientTransform="matrix(5.28003,0,0,5.28003,451.71,295.684)"><stop offset="0" style="stop-color:rgb(133,213,51);stop-opacity:1"/><stop offset="1" style="stop-color:rgb(96,153,36);stop-opacity:1"/></linearGradient>
    </defs>
</svg>
