<?xml version="1.0" encoding="UTF-8" standalone="no"?>
<!DOCTYPE svg PUBLIC "-//W3C//DTD SVG 1.1//EN" "http://www.w3.org/Graphics/SVG/1.1/DTD/svg11.dtd">
<svg width="100%" height="100%" viewBox="0 0 64 64" version="1.1" xmlns="http://www.w3.org/2000/svg" xmlns:xlink="http://www.w3.org/1999/xlink" xml:space="preserve" xmlns:serif="http://www.serif.com/" style="fill-rule:evenodd;clip-rule:evenodd;stroke-linejoin:round;stroke-miterlimit:2;">
    <g transform="matrix(1.98703,0,0,1.98703,-891.415,-1151.32)">
        <path d="M463.804,581.517L460.54,588.131C460.035,589.152 458.699,590.123 457.571,590.287L450.272,591.348C449.145,591.512 448.89,592.297 449.706,593.093L454.987,598.24C455.803,599.036 456.313,600.606 456.121,601.729L454.874,608.999C454.681,610.122 455.349,610.607 456.358,610.077L462.886,606.644C463.391,606.38 464.056,606.247 464.721,606.247L464.721,580.75C464.388,580.75 464.056,581.006 463.804,581.517Z" style="fill:rgb(230,186,89);fill-rule:nonzero;"/>
    </g>
    <g transform="matrix(1.98703,0,0,1.98703,-891.415,-1151.32)">
        <path d="M479.735,593.093C480.552,592.297 480.297,591.512 479.168,591.348L471.87,590.287C470.742,590.123 469.406,589.152 468.902,588.131L465.638,581.517C465.386,581.006 465.053,580.75 464.721,580.75L464.721,606.247C465.386,606.247 466.051,606.38 466.555,606.644L473.083,610.077C474.092,610.607 474.76,610.122 474.567,608.999L473.32,601.729C473.128,600.606 473.638,599.036 474.454,598.24L479.735,593.093Z" style="fill:rgb(199,162,79);fill-rule:nonzero;"/>
    </g>
    <g transform="matrix(1.89681,0,0,1.89681,-849.487,-1097.59)">
        <path d="M463.804,581.517L460.54,588.131C460.035,589.152 458.699,590.123 457.571,590.287L450.272,591.348C449.145,591.512 448.89,592.297 449.706,593.093L454.987,598.24C455.803,599.036 456.313,600.606 456.121,601.729L454.874,608.999C454.681,610.122 455.349,610.607 456.358,610.077L462.886,606.644C463.391,606.38 464.056,606.247 464.721,606.247L464.721,580.75C464.388,580.75 464.056,581.006 463.804,581.517Z" style="fill:rgb(240,237,226);fill-rule:nonzero;"/>
    </g>
    <g transform="matrix(1.89681,0,0,1.89681,-849.487,-1097.59)">
        <path d="M479.735,593.093C480.552,592.297 480.297,591.512 479.168,591.348L471.87,590.287C470.742,590.123 469.406,589.152 468.902,588.131L465.638,581.517C465.386,581.006 465.053,580.75 464.721,580.75L464.721,606.247C465.386,606.247 466.051,606.38 466.555,606.644L473.083,610.077C474.092,610.607 474.76,610.122 474.567,608.999L473.32,601.729C473.128,600.606 473.638,599.036 474.454,598.24L479.735,593.093Z" style="fill:rgb(216,213,202);fill-rule:nonzero;"/>
    </g>
</svg>
