<?xml version="1.0" encoding="UTF-8" standalone="no"?>
<!DOCTYPE svg PUBLIC "-//W3C//DTD SVG 1.1//EN" "http://www.w3.org/Graphics/SVG/1.1/DTD/svg11.dtd">
<svg width="100%" height="100%" viewBox="0 0 64 64" version="1.1" xmlns="http://www.w3.org/2000/svg" xmlns:xlink="http://www.w3.org/1999/xlink" xml:space="preserve" xmlns:serif="http://www.serif.com/" style="fill-rule:evenodd;clip-rule:evenodd;stroke-linejoin:round;stroke-miterlimit:2;">
    <g transform="matrix(1.89734,0,0,1.89734,-1096.48,-342.337)">
        <rect x="590.598" y="182.132" width="8.346" height="3.28" style="fill:rgb(78,79,81);fill-rule:nonzero;"/>
    </g>
    <g transform="matrix(1.89734,0,0,1.89734,-1096.48,-342.337)">
        <path d="M587.053,212.46L584.8,211.153L592.922,202.632L594.641,204.352L587.053,212.46Z" style="fill:rgb(78,79,81);fill-rule:nonzero;"/>
    </g>
    <g transform="matrix(1.89734,0,0,1.89734,-1096.48,-342.337)">
        <path d="M610.373,202.322C610.373,204.737 608.415,206.695 606,206.695L583.542,206.695C581.127,206.695 579.17,204.737 579.17,202.322L579.17,188.581C579.17,186.166 581.127,184.208 583.542,184.208L606,184.208C608.415,184.208 610.373,186.166 610.373,188.581L610.373,202.322Z" style="fill:rgb(78,79,81);fill-rule:nonzero;"/>
    </g>
    <g transform="matrix(1.89734,0,0,1.89734,-1096.48,-342.337)">
        <rect x="582.186" y="187.087" width="25.633" height="16.224" style="fill:rgb(240,237,226);fill-rule:nonzero;"/>
    </g>
    <g transform="matrix(1.89734,0,0,1.89734,-1096.48,-342.337)">
        <rect x="594.487" y="182.132" width="4.327" height="3.28" style="fill:rgb(57,58,59);fill-rule:nonzero;"/>
    </g>
    <g transform="matrix(1.89734,0,0,1.89734,-1096.48,-342.337)">
        <path d="M604.613,211.153L602.326,212.46L594.771,204.352L596.49,202.632L604.613,211.153Z" style="fill:rgb(57,58,59);fill-rule:nonzero;"/>
    </g>
    <g transform="matrix(1.89734,0,0,1.89734,-1096.48,-342.337)">
        <path d="M605.87,184.208L594.487,184.208L594.487,206.695L605.87,206.695C608.285,206.695 610.242,204.737 610.242,202.322L610.242,188.581C610.242,186.166 608.285,184.208 605.87,184.208Z" style="fill:rgb(57,58,59);fill-rule:nonzero;"/>
    </g>
    <g transform="matrix(1.89734,0,0,1.89734,-1096.48,-342.337)">
        <rect x="594.487" y="187.087" width="13.202" height="16.224" style="fill:rgb(221,219,208);fill-rule:nonzero;"/>
    </g>
    <g transform="matrix(1.89734,0,0,1.89734,-1096.48,-342.337)">
        <path d="M585.397,201.115L584.656,200.181L591.64,193.12L596.985,197.975L604.405,191.738L605.148,192.671L596.994,199.492L591.647,194.637L585.397,201.115Z" style="fill:rgb(196,97,105);fill-rule:nonzero;"/>
    </g>
    <g transform="matrix(1.89734,0,0,1.89734,-1096.48,-342.337)">
        <path d="M592.969,193.878C592.969,194.61 592.375,195.204 591.643,195.204C590.912,195.204 590.318,194.61 590.318,193.878C590.318,193.147 590.912,192.554 591.643,192.554C592.375,192.554 592.969,193.147 592.969,193.878Z" style="fill:rgb(196,97,105);fill-rule:nonzero;"/>
    </g>
    <g transform="matrix(1.89734,0,0,1.89734,-1096.48,-342.337)">
        <path d="M586.646,200.181C586.646,200.913 586.054,201.506 585.321,201.506C584.59,201.506 583.996,200.913 583.996,200.181C583.996,199.45 584.59,198.856 585.321,198.856C586.054,198.856 586.646,199.45 586.646,200.181Z" style="fill:rgb(196,97,105);fill-rule:nonzero;"/>
    </g>
    <g transform="matrix(1.89734,0,0,1.89734,-1096.48,-342.337)">
        <path d="M604.429,191.756L597.009,197.993L594.641,195.842L594.641,197.351L597.018,199.51L605.172,192.689L604.429,191.756Z" style="fill:rgb(175,88,95);fill-rule:nonzero;"/>
    </g>
    <g transform="matrix(1.89734,0,0,1.89734,-1096.48,-342.337)">
        <path d="M606.033,192.223C606.033,192.955 605.44,193.547 604.708,193.547C603.977,193.547 603.384,192.955 603.384,192.223C603.384,191.491 603.977,190.897 604.708,190.897C605.44,190.897 606.033,191.491 606.033,192.223Z" style="fill:rgb(175,88,95);fill-rule:nonzero;"/>
    </g>
    <g transform="matrix(1.89734,0,0,1.89734,-1096.48,-342.337)">
        <path d="M598.173,198.185C598.173,198.916 597.58,199.51 596.849,199.51C596.116,199.51 595.523,198.916 595.523,198.185C595.523,197.453 596.116,196.86 596.849,196.86C597.58,196.86 598.173,197.453 598.173,198.185Z" style="fill:rgb(175,88,95);fill-rule:nonzero;"/>
    </g>
</svg>
