<?xml version="1.0" encoding="UTF-8" standalone="no"?>
<!DOCTYPE svg PUBLIC "-//W3C//DTD SVG 1.1//EN" "http://www.w3.org/Graphics/SVG/1.1/DTD/svg11.dtd">
<svg width="100%" height="100%" viewBox="0 0 64 64" version="1.1" xmlns="http://www.w3.org/2000/svg" xmlns:xlink="http://www.w3.org/1999/xlink" xml:space="preserve" xmlns:serif="http://www.serif.com/" style="fill-rule:evenodd;clip-rule:evenodd;stroke-linejoin:round;stroke-miterlimit:2;">
    <g transform="matrix(2.0027,0,0,2.0027,-638.242,-628.967)">
        <path d="M327.943,327.739L329.254,329.466L334.719,325.769L334.719,323.155L327.943,327.739Z" style="fill:rgb(78,79,81);fill-rule:nonzero;"/>
    </g>
    <g transform="matrix(2.0027,0,0,2.0027,-638.242,-628.967)">
        <path d="M340.642,319.147L334.719,323.155L334.719,325.769L341.953,320.874L340.642,319.147Z" style="fill:rgb(64,64,66);fill-rule:nonzero;"/>
    </g>
    <g transform="matrix(2.0027,0,0,2.0027,-638.242,-628.967)">
        <path d="M347.524,318.871C347.524,321.32 345.422,323.305 342.829,323.305C340.235,323.305 338.134,321.32 338.134,318.871C338.134,316.421 340.235,314.437 342.829,314.437C345.422,314.437 347.524,316.421 347.524,318.871Z" style="fill:rgb(92,136,135);fill-rule:nonzero;"/>
    </g>
    <g transform="matrix(2.0027,0,0,2.0027,-638.242,-628.967)">
        <path d="M329.253,330.612L327.943,332.336L334.719,336.921L334.719,334.311L329.253,330.612Z" style="fill:rgb(78,79,81);fill-rule:nonzero;"/>
    </g>
    <g transform="matrix(2.0027,0,0,2.0027,-638.242,-628.967)">
        <path d="M341.951,339.205L334.719,334.311L334.719,336.921L340.642,340.929L341.951,339.205Z" style="fill:rgb(64,64,66);fill-rule:nonzero;"/>
    </g>
    <g transform="matrix(2.0027,0,0,2.0027,-638.242,-628.967)">
        <path d="M347.524,341.205C347.524,338.756 345.422,336.771 342.829,336.771C340.235,336.771 338.134,338.756 338.134,341.205C338.134,343.654 340.235,345.64 342.829,345.64C345.422,345.64 347.524,343.654 347.524,341.205Z" style="fill:rgb(92,136,135);fill-rule:nonzero;"/>
    </g>
    <g transform="matrix(2.0027,0,0,2.0027,-638.242,-628.967)">
        <path d="M331.207,330.612C331.207,333.061 329.104,335.046 326.512,335.046C323.918,335.046 321.816,333.061 321.816,330.612C321.816,328.162 323.918,326.178 326.512,326.178C329.104,326.178 331.207,328.162 331.207,330.612Z" style="fill:rgb(109,161,161);fill-rule:nonzero;"/>
    </g>
</svg>
