<?xml version="1.0" encoding="UTF-8" standalone="no"?>
<!DOCTYPE svg PUBLIC "-//W3C//DTD SVG 1.1//EN" "http://www.w3.org/Graphics/SVG/1.1/DTD/svg11.dtd">
<svg width="100%" height="100%" viewBox="0 0 64 64" version="1.1" xmlns="http://www.w3.org/2000/svg" xmlns:xlink="http://www.w3.org/1999/xlink" xml:space="preserve" xmlns:serif="http://www.serif.com/" style="fill-rule:evenodd;clip-rule:evenodd;stroke-linejoin:round;stroke-miterlimit:2;">
    <g transform="matrix(1.87621,0,0,1.87621,-1937.93,-1461)">
        <path d="M1064.87,779.716L1049.8,794.779C1049.81,794.788 1049.82,794.797 1049.83,794.807C1051.69,796.879 1051.65,798.519 1050.92,799.892C1052.76,798.424 1054.68,796.704 1056.6,794.786C1064.03,787.358 1066.74,781.594 1064.87,779.716Z" style="fill:rgb(78,79,81);fill-rule:nonzero;"/>
    </g>
    <g transform="matrix(1.87621,0,0,1.87621,-1937.93,-1461)">
        <path d="M1049.83,794.807C1049.82,794.797 1049.81,794.788 1049.8,794.779L1042.6,801.984L1044.69,804.076C1046.5,803.152 1048.64,801.721 1050.92,799.892C1051.65,798.519 1051.69,796.879 1049.83,794.807Z" style="fill:rgb(121,174,174);fill-rule:nonzero;"/>
    </g>
    <g transform="matrix(1.87621,0,0,1.87621,-1937.93,-1461)">
        <path d="M1049.8,794.779L1064.87,779.716C1062.99,777.837 1057.22,780.556 1049.79,787.983C1048.06,789.722 1046.48,791.466 1045.11,793.143C1046.46,792.616 1048.03,792.826 1049.8,794.779Z" style="fill:rgb(57,58,59);fill-rule:nonzero;"/>
    </g>
    <g transform="matrix(1.87621,0,0,1.87621,-1937.93,-1461)">
        <path d="M1045.11,793.143C1043.08,795.622 1041.5,797.95 1040.51,799.893L1042.6,801.984L1049.8,794.779C1048.03,792.825 1046.46,792.616 1045.11,793.143Z" style="fill:rgb(102,146,146);fill-rule:nonzero;"/>
    </g>
    <g transform="matrix(1.87621,0,0,1.87621,-1937.93,-1461)">
        <path d="M1044.25,805.428C1044.26,805.416 1044.27,805.404 1044.28,805.393C1045.69,803.985 1048.39,802.004 1045.49,799.096L1041.7,802.881L1044.25,805.428Z" style="fill:rgb(78,79,81);fill-rule:nonzero;"/>
    </g>
    <g transform="matrix(1.87621,0,0,1.87621,-1937.93,-1461)">
        <path d="M1039.19,800.297C1039.18,800.309 1039.16,800.323 1039.15,800.335L1041.7,802.881L1045.49,799.096C1042.58,796.188 1040.6,798.891 1039.19,800.297Z" style="fill:rgb(57,58,59);fill-rule:nonzero;"/>
    </g>
    <g transform="matrix(1.87621,0,0,1.87621,-1937.93,-1461)">
        <path d="M1037.42,801.926C1036.51,802.838 1035.06,807.088 1034.47,808.937C1034.39,809.162 1034.67,809.331 1034.84,809.164L1039.34,804.666C1039.42,804.584 1039.46,804.468 1039.46,804.344C1039.45,804.166 1039.51,803.994 1039.63,803.867C1039.9,803.604 1040.35,803.633 1040.65,803.932C1040.95,804.229 1040.98,804.685 1040.71,804.947C1040.59,805.074 1040.41,805.133 1040.24,805.125C1040.11,805.12 1040,805.162 1039.91,805.244L1035.42,809.742C1035.25,809.908 1035.42,810.186 1035.64,810.115C1037.49,809.523 1041.74,808.073 1042.66,807.162C1042.99,806.829 1043.39,806.465 1043.78,806.065C1043.86,805.977 1043.93,805.906 1043.93,805.906C1045.16,804.591 1046.1,802.902 1043.89,800.691C1041.68,798.481 1039.99,799.426 1038.67,800.652C1038.67,800.652 1038.6,800.719 1038.52,800.803C1038.12,801.19 1037.75,801.593 1037.42,801.926Z" style="fill:rgb(208,174,94);fill-rule:nonzero;"/>
    </g>
    <g transform="matrix(1.87621,0,0,1.87621,-1937.93,-1461)">
        <path d="M1040.65,803.932C1040.95,804.229 1040.98,804.685 1040.71,804.947C1040.59,805.074 1040.41,805.133 1040.24,805.125C1040.11,805.12 1040,805.162 1039.91,805.244L1035.42,809.742C1035.25,809.908 1035.42,810.186 1035.64,810.115C1037.49,809.523 1041.74,808.073 1042.66,807.162C1042.99,806.829 1043.39,806.465 1043.78,806.065C1043.86,805.977 1043.93,805.906 1043.93,805.906C1045.16,804.591 1046.1,802.902 1043.89,800.691L1040.65,803.932Z" style="fill:rgb(234,196,105);fill-rule:nonzero;"/>
    </g>
    <g transform="matrix(0.849185,0,0,0.849185,-15.3743,-344.116)">
        <path d="M71.219,447.178L71.219,459.422L58.967,459.422L58.967,466.136L71.219,466.136L71.219,478.381L74.909,478.381L74.909,447.178L71.219,447.178Z" style="fill:rgb(196,97,105);fill-rule:nonzero;"/>
    </g>
    <g transform="matrix(0.849185,0,0,0.849185,-15.3743,-344.116)">
        <path d="M77.933,459.422L77.933,447.178L74.909,447.178L74.909,478.381L77.933,478.381L77.933,466.136L90.17,466.136L90.17,459.422L77.933,459.422Z" style="fill:rgb(168,84,91);fill-rule:nonzero;"/>
    </g>
</svg>
